<svg width="50" height="50" viewBox="0 0 50 50" fill="none" xmlns="http://www.w3.org/2000/svg">
<path fill-rule="evenodd" clip-rule="evenodd" d="M10.4166 2.08337C8.20651 2.08337 6.08689 2.96135 4.52409 4.52415C2.96129 6.08695 2.08331 8.20657 2.08331 10.4167V39.5834C2.08331 41.7935 2.96129 43.9131 4.52409 45.4759C6.08689 47.0387 8.20651 47.9167 10.4166 47.9167H39.5833C41.7934 47.9167 43.9131 47.0387 45.4759 45.4759C47.0387 43.9131 47.9166 41.7935 47.9166 39.5834V10.4167C47.9166 8.20657 47.0387 6.08695 45.4759 4.52415C43.9131 2.96135 41.7934 2.08337 39.5833 2.08337H10.4166ZM22.7458 11.3209C20.8159 11.9662 19.044 13.0115 17.5459 14.3887C16.0477 15.7658 14.8572 17.4437 14.0521 19.3125H40.5416C39.1158 15.9929 36.4954 13.3296 33.1994 11.85C29.9033 10.3704 26.1719 10.1823 22.7437 11.323L22.7458 11.3209ZM19.9625 39.1459C16.6855 38.5003 13.7344 36.737 11.6132 34.1571C9.49205 31.5773 8.33241 28.341 8.33241 25.0011C8.33241 21.6612 9.49205 18.4249 11.6132 15.845C13.7344 13.2652 16.6855 11.5019 19.9625 10.8563C17.3717 12.2009 15.1999 14.2312 13.6841 16.7258C12.1683 19.2203 11.3666 22.0832 11.3666 25.0021C11.367 27.9207 12.1688 30.7832 13.6846 33.2773C15.2004 35.7714 17.372 37.8014 19.9625 39.1459ZM12.9291 23.8625C12.9916 23.0848 13.1125 22.3264 13.2916 21.5875H41.3041C41.4847 22.3264 41.6055 23.0848 41.6666 23.8625H12.9291ZM12.9291 26.1375C12.9916 26.9181 13.1125 27.6771 13.2916 28.4146H41.3041C41.4847 27.6757 41.6055 26.9174 41.6666 26.1396L12.9291 26.1375ZM27.2979 39.4146C30.117 39.4147 32.8743 38.5882 35.2285 37.0374C37.5828 35.4867 39.4308 33.2797 40.5437 30.6896H14.0521C14.8572 32.5585 16.0477 34.2363 17.5459 35.6135C19.044 36.9906 20.8159 38.036 22.7458 38.6813C24.2138 39.1691 25.751 39.4167 27.2979 39.4146Z" fill="#7667FF"/>
</svg>
