<svg width="50" height="50" viewBox="0 0 50 50" fill="none" xmlns="http://www.w3.org/2000/svg">
<path d="M22.5417 17.5563C20.9583 15.2958 20.3625 13.6563 20.2333 12.4625C20.1104 11.3375 20.3854 10.4417 20.9312 9.58126C21.5208 8.65001 22.4062 7.78542 23.5312 6.76251C24.5833 5.80834 25.9 4.67292 26.9333 3.38751L23.6875 0.779175C22.8208 1.85626 21.7542 2.75209 20.7333 3.67709C19.6208 4.68751 18.3396 5.88959 17.4146 7.35209C16.4437 8.88334 15.8521 10.7083 16.0917 12.9146C16.325 15.0521 17.3167 17.3563 19.1292 19.9458L22.5417 17.5563ZM25.1458 11.2438C25.7375 9.81876 26.9396 8.38959 28.8542 6.75209L31.5625 9.91459C29.8312 11.4 29.2104 12.3167 28.9896 12.8458C28.7729 13.3667 28.9167 13.8854 29.0625 14.4021C29.2375 15.0188 29.5271 16.0479 29.5083 17.1563C29.4833 18.6271 28.9792 20.1813 27.775 21.9896L24.3083 19.6771C25.1875 18.3604 25.3333 17.5729 25.3417 17.0875C25.3521 16.4729 25.1917 16.1292 24.9312 15.0875C24.6812 14.0917 24.4958 12.8021 25.1458 11.2438ZM12.7937 20.8333C13.7729 20.1792 14.9812 19.8458 16.1104 19.575L15.1375 15.5208C13.4437 15.9292 11.9062 16.4792 10.7375 17.2021C9.67499 17.8604 8.33332 19.0333 8.33332 20.8333C8.33332 22.3458 9.34582 23.5542 10.5521 24.3458C10.4612 24.7365 10.4158 25.1364 10.4167 25.5375C10.4167 27.5792 11.2875 29.3021 12.7979 30.5792C12.575 31.2042 12.475 31.9 12.5062 32.5958C10.8875 32.9104 9.30624 33.3729 7.98541 33.9792C7.08541 34.3917 6.19791 34.9188 5.50624 35.5979C4.81041 36.2833 4.16666 37.2729 4.16666 38.5417C4.16666 39.4313 4.56041 40.15 4.94582 40.6458C5.33957 41.15 5.84582 41.5813 6.37082 41.9458C7.42499 42.6771 8.83749 43.3396 10.4521 43.8958C13.6979 45.0167 18.0958 45.8333 22.9167 45.8333C29.8479 45.8333 34.7146 45.0333 37.8958 44.2042C39.1047 43.8968 40.2908 43.5063 41.4458 43.0354C41.8833 42.8521 42.3208 42.6583 42.7292 42.4167C42.75 42.4042 40.5875 38.8438 40.5958 38.8375C39.4208 39.45 38.1208 39.8375 36.8458 40.1708C34.0354 40.9042 29.5271 41.6667 22.9167 41.6667C18.5333 41.6667 14.5979 40.9208 11.8125 39.9583C10.7042 39.575 9.54582 39.1292 8.60207 38.4167C8.84166 38.2292 9.20624 38.0021 9.72291 37.7667C10.8854 37.2333 12.4792 36.7958 14.1812 36.5354C14.659 37.0424 15.2243 37.4868 15.8771 37.8688C17.8875 39.0396 20.6521 39.5833 23.9583 39.5833C26.6875 39.5833 28.6625 39.3083 29.9958 39.0125C30.7375 38.85 31.4833 38.6646 32.1667 38.3292C32.1729 38.325 30.3312 34.5896 30.3312 34.5896C29.9271 34.7354 29.5153 34.8535 29.0958 34.9438C28.0771 35.1708 26.4083 35.4167 23.9583 35.4167C21.0146 35.4167 19.0917 34.9167 17.9771 34.2688C17.0896 33.7521 16.75 33.1771 16.6812 32.5521C18.4896 33.0792 20.6292 33.3333 23.0479 33.3333C26.0958 33.3333 28.2937 33.0354 29.7729 32.7146C30.5771 32.5417 31.3875 32.3417 32.1354 31.9938C32.1771 31.9729 30.35 28.2292 30.35 28.2292C29.8761 28.4067 29.3883 28.5447 28.8917 28.6417C27.725 28.8938 25.8229 29.1667 23.0458 29.1667C19.7062 29.1667 17.4833 28.6167 16.1667 27.8688C15.1854 27.3104 14.7542 26.6854 14.625 26.0146C17.2083 26.6938 20.4687 27.0833 23.9583 27.0833C27.7437 27.0833 31.2542 26.625 33.9229 25.8375L32.7437 21.8417C30.5479 22.4896 27.4521 22.9167 23.9583 22.9167C20.3667 22.9167 17.1979 22.4667 14.9958 21.7875C13.9542 21.4688 13.2333 21.1292 12.7958 20.8333M36.6458 22.3875C39.1729 22.1583 40.1042 22.7792 40.4042 23.1C40.7146 23.4333 40.8229 23.95 40.6875 24.4958C40.4458 25.4625 39.7646 26.4 38.6604 27.2625C37.5583 28.1229 36.1604 28.8042 34.7583 29.2729L36.075 33.225C37.8 32.65 39.6542 31.7708 41.2229 30.5479C42.7854 29.3271 44.1896 27.6625 44.7292 25.5063C45.1146 23.9646 44.9625 21.8792 43.45 20.2563C41.9292 18.6271 39.4729 17.9458 36.2687 18.2375L36.6458 22.3875Z" fill="#FF6C6C"/>
</svg>
