<svg width="50" height="50" viewBox="0 0 50 50" fill="none" xmlns="http://www.w3.org/2000/svg">
<path d="M20.0761 3.03052C9.37459 3.03052 0.699585 4.52427 0.682788 6.36646L0.682007 6.36294V17.0243C0.682007 18.8692 9.36443 20.3583 20.0761 20.3583C30.7871 20.3583 39.4699 18.8598 39.4699 17.0243V6.36294L39.4691 6.36685C39.4523 4.52427 30.7758 3.03052 20.0761 3.03052ZM13.3308 9.50317C13.8735 9.53833 14.4269 9.56906 14.991 9.59536C14.7668 9.58521 14.5301 9.57974 14.309 9.56802C13.973 9.55005 13.6586 9.52427 13.3308 9.50317ZM21.3203 9.70474C20.9047 9.70942 20.4984 9.71919 20.0761 9.71919V9.71841C19.8207 9.71841 19.5781 9.71021 19.3254 9.70864C19.5761 9.71021 19.8226 9.71528 20.0761 9.71528C20.4961 9.71528 20.907 9.70903 21.3203 9.70474ZM0.682007 19.7508V29.036C0.682007 30.8825 9.36443 32.37 20.0761 32.37C22.616 32.37 25.0261 32.2809 27.2468 32.1278C28.9351 27.8649 33.0914 24.8489 37.9547 24.8489C38.4687 24.8489 38.9738 24.886 39.4699 24.9512V19.7508C39.4699 21.5973 30.7871 23.0852 20.0761 23.0852C9.36443 23.0852 0.682007 21.5875 0.682007 19.7508ZM37.9547 26.2696C33.9398 26.2696 30.4738 28.6129 28.8476 32.0063C28.7332 32.2474 28.6283 32.4929 28.5332 32.7422C28.4551 32.9461 28.3801 33.1524 28.3148 33.3618V33.3625C28.2496 33.575 28.1914 33.7896 28.1402 34.0059C28.129 34.0543 28.1181 34.1029 28.1074 34.1516C28.0581 34.3684 28.0158 34.5867 27.9808 34.8063C27.901 35.3215 27.8609 35.842 27.8609 36.3633C27.8609 39.9911 29.775 43.1704 32.6476 44.9493C32.8372 45.0665 33.0304 45.1774 33.2273 45.2821L33.2633 45.3004C33.4406 45.3934 33.6209 45.4812 33.8043 45.5637L33.8937 45.604C34.2851 45.7764 34.6888 45.9239 35.1047 46.0465C35.3181 46.1091 35.5336 46.1646 35.7508 46.2129L35.859 46.2379C36.0686 46.2822 36.2807 46.32 36.4953 46.3512L36.5859 46.3622C36.7716 46.3874 36.9588 46.4073 37.1476 46.4219L37.2941 46.4336C37.5129 46.4473 37.7324 46.4571 37.9547 46.4571C39.9656 46.4585 41.931 45.8583 43.598 44.7336C44.1342 44.3711 44.6345 43.9582 45.0922 43.5004C46.2476 42.3441 47.1062 40.9253 47.5945 39.3653C47.7942 38.7238 47.929 38.0638 47.9968 37.3954C48.0604 36.7621 48.0644 36.1243 48.0086 35.4903C48.0058 35.4586 48.0043 35.4262 48.0008 35.3942C47.9703 35.0784 47.9251 34.7643 47.8652 34.4528C47.8166 34.1996 47.7583 33.9484 47.6906 33.6997C47.6763 33.6486 47.6616 33.5976 47.6465 33.5465C47.575 33.2986 47.494 33.0535 47.4039 32.8118L47.3617 32.7059C47.2652 32.4557 47.1589 32.2094 47.0429 31.9676C47.0336 31.9502 47.0245 31.9325 47.0156 31.9145C46.8964 31.672 46.7675 31.4343 46.6293 31.202L46.607 31.1645C46.4666 30.9326 46.317 30.7063 46.1586 30.4864L46.1066 30.4122C45.9537 30.2038 45.7929 30.0013 45.6246 29.8051C45.5944 29.77 45.5638 29.7351 45.5328 29.7004C45.3648 29.5085 45.1897 29.3234 45.0074 29.145L44.9242 29.0668C44.7337 28.8838 44.5362 28.7083 44.332 28.5407L44.284 28.5028C44.0738 28.333 43.857 28.1717 43.634 28.0192C43.6235 28.0114 43.6131 28.004 43.6027 27.9969L43.598 27.9938C43.3758 27.8447 43.1477 27.7045 42.9144 27.5735L42.8277 27.5231C42.5612 27.3767 42.2883 27.2423 42.0097 27.1204C41.7754 27.017 41.5363 26.9226 41.2926 26.8372C41.2475 26.8215 41.2022 26.8063 41.1566 26.7915C40.9103 26.7086 40.6609 26.6353 40.409 26.5715C40.3691 26.5618 40.3281 26.554 40.2879 26.5442C40.0188 26.4795 39.7472 26.4258 39.4738 26.3833L39.4699 26.3825C38.9683 26.3071 38.4619 26.2693 37.9547 26.2696ZM34.3992 30.5329L43.7851 35.9512L34.3992 41.3696V30.5329ZM0.682007 31.7641V42.4243C0.682007 44.2704 9.36443 45.7583 20.0761 45.7583C23.9746 45.7583 27.5511 45.5489 30.5801 45.2067C28.0496 43.0942 26.439 39.9172 26.439 36.3629C26.4403 35.8744 26.4722 35.3865 26.5343 34.902C24.3841 35.0324 22.2304 35.0974 20.0761 35.0969C9.36443 35.0969 0.682007 33.6 0.682007 31.7641Z" fill="#D3C2C2"/>
</svg>
