<svg width="50" height="50" viewBox="0 0 50 50" fill="none" xmlns="http://www.w3.org/2000/svg">
<path d="M5.20834 25C5.20834 15.6709 5.20834 11.0042 8.10626 8.10629C11.0042 5.20837 15.6688 5.20837 25 5.20837C34.3292 5.20837 38.9958 5.20837 41.8938 8.10629C44.7917 11.0042 44.7917 15.6688 44.7917 25C44.7917 34.3292 44.7917 38.9959 41.8938 41.8938C38.9958 44.7917 34.3313 44.7917 25 44.7917C15.6708 44.7917 11.0042 44.7917 8.10626 41.8938C5.20834 38.9959 5.20834 34.3313 5.20834 25Z" stroke="#AEAEAE" stroke-width="1.5"/>
<path d="M10.4167 25.0001V20.8334C10.4167 20.5571 10.5264 20.2922 10.7218 20.0968C10.9171 19.9015 11.1821 19.7917 11.4584 19.7917H14.0625C14.7532 19.7917 15.4156 20.0661 15.9039 20.5545C16.3923 21.0429 16.6667 21.7052 16.6667 22.3959C16.6667 23.0866 16.3923 23.749 15.9039 24.2373C15.4156 24.7257 14.7532 25.0001 14.0625 25.0001H10.4167ZM10.4167 25.0001V30.2084M33.3334 25.0001V20.8334C33.3334 20.5571 33.4431 20.2922 33.6384 20.0968C33.8338 19.9015 34.0988 19.7917 34.375 19.7917H36.9792C37.6699 19.7917 38.3322 20.0661 38.8206 20.5545C39.309 21.0429 39.5834 21.7052 39.5834 22.3959C39.5834 23.0866 39.309 23.749 38.8206 24.2373C38.3322 24.7257 37.6699 25.0001 36.9792 25.0001H33.3334ZM33.3334 25.0001V30.2084M21.875 19.7917V25.0001M21.875 25.0001V30.2084M21.875 25.0001H28.125M28.125 19.7917V25.0001M28.125 25.0001V30.2084" stroke="#AEAEAE" stroke-width="1.5" stroke-linecap="round" stroke-linejoin="round"/>
</svg>
