<svg width="50" height="50" viewBox="0 0 50 50" fill="none" xmlns="http://www.w3.org/2000/svg">
<g clip-path="url(#clip0_16_109)">
<path d="M45.5291 2.95001C44.8339 4.61477 43.9354 6.18713 42.8541 7.63126C40.5375 5.23169 37.7629 3.32137 34.6946 2.0134C31.6264 0.705439 28.3269 0.0264322 24.9915 0.0165881C21.6561 0.00674394 18.3527 0.666263 15.2768 1.95609C12.2009 3.24592 9.41506 5.13984 7.08427 7.52569C4.75349 9.91155 2.92513 12.7408 1.70747 15.846C0.489811 18.9512 -0.0923987 22.2691 -0.00468212 25.6034C0.0830344 28.9376 0.838894 32.2204 2.21814 35.2572C3.59738 38.2941 5.57197 41.0233 8.02498 43.2833L8.94998 44.1063C12.464 47.0704 16.7299 49.004 21.2752 49.693C25.8205 50.382 30.4678 49.7994 34.7023 48.0097C38.9369 46.2201 42.5934 43.2933 45.267 39.5534C47.9406 35.8136 49.5268 31.4067 49.85 26.8208C50.5708 20.5438 48.6666 12.5188 45.5291 2.95001ZM11.625 43.4896C11.3605 43.8143 11.0058 44.0533 10.6056 44.1765C10.2054 44.2997 9.77768 44.3016 9.37642 44.1819C8.97516 44.0621 8.61837 43.8262 8.35111 43.5039C8.08385 43.1815 7.9181 42.7872 7.8748 42.3707C7.83149 41.9542 7.91257 41.5342 8.10779 41.1638C8.30302 40.7933 8.60363 40.489 8.97168 40.2893C9.33972 40.0896 9.7587 40.0034 10.1757 40.0417C10.5927 40.0799 10.989 40.2409 11.3146 40.5042C11.7411 40.8654 12.0116 41.3775 12.0695 41.9334C12.1273 42.4894 11.9681 43.0483 11.625 43.4896ZM45.3729 36.0271C39.25 44.2063 26.0812 41.4292 17.6937 41.8396C17.6937 41.8396 16.2021 41.9438 14.7104 42.1479C14.7104 42.1479 15.2771 41.8917 15.9979 41.6333C21.9146 39.5771 24.6916 39.1646 28.2916 37.3125C35.0312 33.8667 41.7708 26.3042 43.1083 18.4833C40.5354 25.9958 32.7166 32.4771 25.6166 35.1C20.7291 36.9021 11.9333 38.65 11.9333 38.65L11.5729 38.4438C5.60414 35.5125 5.39998 22.5479 16.3062 18.3813C21.0896 16.5271 25.6187 17.5583 30.8125 16.3229C36.3187 15.0375 42.6979 10.9208 45.2708 5.51876C48.15 14.2146 51.6479 27.6917 45.3729 36.0271Z" fill="#52FF42"/>
</g>
<defs>
<clipPath id="clip0_16_109">
<rect width="50" height="50" fill="white"/>
</clipPath>
</defs>
</svg>
