<svg width="50" height="50" viewBox="0 0 50 50" fill="none" xmlns="http://www.w3.org/2000/svg">
<g clip-path="url(#clip0_16_116)">
<path d="M3.59765 8.62006e-06C3.13042 -0.000918349 2.6676 0.0904398 2.23576 0.268839C1.80392 0.447239 1.41156 0.709167 1.08121 1.03959C0.750862 1.37001 0.48902 1.76243 0.310715 2.1943C0.132411 2.62618 0.0411543 3.08902 0.0421839 3.55626V46.4438C0.0411541 46.911 0.132423 47.3739 0.310752 47.8058C0.489082 48.2377 0.750959 48.6301 1.08135 48.9606C1.41174 49.291 1.80414 49.5529 2.23603 49.7313C2.66791 49.9097 3.13077 50.001 3.59804 50H46.402C46.8693 50.001 47.3322 49.9098 47.7641 49.7314C48.196 49.5531 48.5885 49.2911 48.9189 48.9607C49.2493 48.6303 49.5112 48.2378 49.6896 47.8059C49.8679 47.374 49.9592 46.9111 49.9582 46.4438V3.55626C49.9592 3.08896 49.8679 2.62605 49.6896 2.19412C49.5112 1.76219 49.2493 1.36975 48.9189 1.03931C48.5885 0.70888 48.196 0.446968 47.7641 0.268614C47.3322 0.0902607 46.8693 -0.00102137 46.402 8.62006e-06H3.59765ZM42.5852 6.81759C38.7078 14.5141 35.7094 22.7074 30.7648 29.8309C28.5488 33.1109 25.9133 36.4203 22.0961 37.8738C19.3703 39.0223 15.9809 38.5758 13.8047 36.525C12.498 35.4352 12.6824 33.5445 13.4469 32.202C15.4477 29.6512 18.3207 27.9922 20.9234 26.1293C28.9301 20.6598 36.4375 14.3508 42.5852 6.81759ZM39.0594 9.42227C33.8453 15.1535 27.8477 20.1734 21.4508 24.5668L21.4445 24.5711L21.4379 24.5766C18.6738 26.6164 15.5316 28.3774 13.1195 31.0637C12.3926 31.7578 11.9031 33.2356 12.0004 34.1496C10.7039 31.977 10.334 28.7047 11.4641 26.3582C12.5617 23.8777 15.093 22.5945 17.4555 21.5836C25.2828 18.7645 31.4055 15.4867 39.0594 9.42227Z" fill="#32722C"/>
</g>
<defs>
<clipPath id="clip0_16_116">
<rect width="50" height="50" fill="white"/>
</clipPath>
</defs>
</svg>
